<svg width="55" height="51" viewBox="0 0 55 51" fill="none" xmlns="http://www.w3.org/2000/svg">
<path d="M27.5024 4.25C14.8409 4.25 4.5857 13.7594 4.5857 25.5C4.58155 29.961 6.09306 34.3099 8.90562 37.9291C11.7182 41.5484 15.6888 44.254 20.2538 45.662C21.3997 45.8469 21.8305 45.2094 21.8305 44.6505C21.8305 44.1469 21.8007 42.4745 21.8007 40.6937C16.044 41.6776 14.5545 39.3933 14.0961 38.1969C13.8372 37.5849 12.7211 35.7 11.7472 35.1943C10.9451 34.7969 9.79924 33.813 11.7174 33.7875C13.5232 33.7599 14.8111 35.3281 15.242 35.9656C17.3045 39.1786 20.5976 38.2755 21.9153 37.7188C22.117 36.3375 22.7174 35.4089 23.3774 34.8776C18.2784 34.3464 12.9503 32.5125 12.9503 24.3844C12.9503 22.0724 13.8372 20.162 15.2992 18.6745C15.0701 18.1433 14.268 15.9651 15.5284 13.0433C15.5284 13.0433 17.4465 12.4844 21.8305 15.2193C23.6963 14.7404 25.6237 14.4994 27.5597 14.5031C29.5076 14.5031 31.4555 14.7411 33.2888 15.2193C37.6728 12.4568 39.5909 13.0433 39.5909 13.0433C40.8513 15.9651 40.0492 18.1433 39.8201 18.6745C41.2799 20.162 42.169 22.0469 42.169 24.3844C42.169 32.5401 36.8134 34.3464 31.7144 34.8776C32.544 35.5406 33.2613 36.8156 33.2613 38.8089C33.2613 41.65 33.2315 43.9344 33.2315 44.6526C33.2315 45.2094 33.6624 45.8724 34.8082 45.6599C39.356 44.2342 43.3076 41.5227 46.1074 37.9066C48.9071 34.2904 50.4142 29.9516 50.4167 25.5C50.4167 13.7594 40.1615 4.25 27.5001 4.25" fill="#4B4B4B"/>
</svg>
