<svg width="21" height="11" viewBox="0 0 21 11" fill="none" xmlns="http://www.w3.org/2000/svg">
<path d="M4.77138 2.11842C3.16138 0.429416 1.28038 2.02592 1.02388 4.46642C0.905377 5.59392 1.17638 7.64792 3.02088 7.57542C3.75788 7.54642 4.66788 6.98842 5.64738 5.41742C5.88288 5.03892 6.02138 4.62542 5.98838 4.22042C5.64838 4.47892 5.87638 5.02292 6.38438 5.01692C7.23088 5.00692 6.96288 5.61542 6.77138 6.23192C6.57188 6.87242 6.74438 7.25042 7.15938 7.24092C7.57738 7.23092 8.05638 6.62092 8.39938 5.98242" stroke="#3D4351" stroke-width="0.5" stroke-linecap="round" stroke-linejoin="round"/>
<path d="M5.28785 1.17694C4.76435 2.02544 4.51535 2.57844 4.30585 3.64644M8.48785 5.98694C9.25835 6.31594 10.0013 5.71494 10.0743 5.15044C10.1693 4.41244 9.78435 4.18544 9.37685 4.26294C8.49685 4.42944 7.98685 6.28994 8.82185 7.26894C9.41385 7.96344 10.4653 7.46394 11.1653 6.12894M13.1473 5.42994C12.9878 4.36444 11.5223 4.23994 11.1763 6.12644C11.0043 7.06394 11.3138 7.46144 11.7163 7.51544C12.1223 7.57044 12.6643 7.35944 12.9553 6.23594C13.1673 5.41894 13.2803 4.82094 13.4733 3.97594C13.6933 3.01294 14.1803 1.20144 13.7628 1.00694C13.2383 0.761937 12.3888 7.08544 13.4218 7.51444C14.1318 7.80994 14.7143 6.13294 15.2633 4.79244C15.8118 3.45494 16.5713 1.32994 16.0303 1.01744C15.6078 0.954437 15.3963 2.13544 15.3018 2.71894C14.9508 4.87594 14.7628 7.36894 15.6958 7.36694C16.1498 7.36594 16.8648 6.77394 17.2508 5.46144" stroke="#3D4351" stroke-width="0.5" stroke-linecap="round" stroke-linejoin="round"/>
<path d="M17.5539 4.14941C17.2249 5.12791 17.0939 6.21791 17.3549 6.76841C17.6014 7.28791 18.1289 7.01591 18.4784 6.56691C18.7634 6.20091 19.0824 5.81991 19.1704 5.17491" stroke="#3D4351" stroke-width="0.5" stroke-linecap="round" stroke-linejoin="round"/>
<path d="M19.3094 4.14691L18.7894 8.05891C18.5474 9.87891 17.1229 10.9414 15.8954 10.2589C15.1184 9.82641 15.5994 8.59941 17.3699 8.69191C18.1664 8.73341 18.9419 8.75641 19.6114 8.21391C20.0039 7.89641 20.2439 7.45741 20.4999 6.98141" stroke="#3D4351" stroke-width="0.5" stroke-linecap="round" stroke-linejoin="round"/>
</svg>
