<svg width="24" height="24" viewBox="0 0 24 24" fill="none" xmlns="http://www.w3.org/2000/svg">
<path d="M12 1C13.0608 1 14.0783 1.42143 14.8284 2.17157C15.5786 2.92172 16 3.93913 16 5L15.998 5.055L16.028 5.037C16.8707 4.54815 17.8637 4.38621 18.818 4.582L19.055 4.638C19.5601 4.77458 20.0332 5.00966 20.4472 5.32972C20.8611 5.64979 21.2077 6.04852 21.467 6.503C21.9945 7.42097 22.1376 8.51032 21.865 9.53338C21.5924 10.5564 20.9263 11.4302 20.012 11.964L19.944 12L20.015 12.039C20.8964 12.5544 21.548 13.3865 21.8369 14.3658C22.1259 15.3451 22.0304 16.3977 21.57 17.309L21.469 17.495C21.2095 17.9501 20.8626 18.3494 20.4481 18.6698C20.0337 18.9902 19.5599 19.2254 19.0541 19.3619C18.5484 19.4983 18.0206 19.5334 17.5012 19.4649C16.9818 19.3964 16.4811 19.2259 16.028 18.963L15.998 18.943L16 19C16 20.0262 15.6055 21.0132 14.8983 21.7568C14.191 22.5004 13.2249 22.9437 12.2 22.995L12 23C10.9391 23 9.9217 22.5786 9.17155 21.8284C8.42141 21.0783 7.99998 20.0609 7.99998 19L8.00098 18.944L7.97198 18.963C7.12944 19.4522 6.13643 19.6145 5.18198 19.419L4.94598 19.363C4.44069 19.2265 3.96737 18.9915 3.55326 18.6714C3.13914 18.3514 2.7924 17.9526 2.53298 17.498C2.0056 16.5804 1.86239 15.4914 2.13458 14.4686C2.40676 13.4458 3.07226 12.5721 3.98598 12.038L4.05598 12L3.98498 11.962C3.10359 11.4466 2.45197 10.6145 2.16302 9.63519C1.87407 8.65591 1.96955 7.6033 2.42998 6.692L2.52998 6.505C2.78942 6.04949 3.13649 5.64986 3.55118 5.32919C3.96588 5.00852 4.43997 4.77315 4.9461 4.63667C5.45224 4.50018 5.98039 4.46529 6.50008 4.534C7.01977 4.60272 7.52071 4.77367 7.97398 5.037L7.99998 5.055V5C7.99998 3.97376 8.39442 2.98677 9.10171 2.24319C9.80899 1.4996 10.775 1.05631 11.8 1.005L12 1ZM12 9C11.2043 9 10.4413 9.31607 9.87866 9.87868C9.31605 10.4413 8.99998 11.2044 8.99998 12C8.99998 12.7956 9.31605 13.5587 9.87866 14.1213C10.4413 14.6839 11.2043 15 12 15C12.7956 15 13.5587 14.6839 14.1213 14.1213C14.6839 13.5587 15 12.7956 15 12C15 11.2044 14.6839 10.4413 14.1213 9.87868C13.5587 9.31607 12.7956 9 12 9Z" fill="#F47A9F" fill-opacity="0.35"/>
</svg>
