<svg width="23" height="24" viewBox="0 0 23 24" fill="none" xmlns="http://www.w3.org/2000/svg">
<path d="M11.4975 0C9.79852 0 1.47108 4.60061 0.630667 6.00369C-0.209743 7.40677 -0.210701 16.5997 0.630667 17.9982C1.47587 19.4003 9.80331 24 11.4975 24C13.1879 24 21.5154 19.4031 22.3625 18.0018C23.2125 16.5969 23.2125 7.39754 22.3625 5.99815V5.99631C21.5087 4.59692 13.1822 0 11.4975 0ZM11.4956 1.85723C13.1218 2.18308 19.5663 5.73877 20.6951 6.93231C21.2126 8.44615 21.2116 15.5483 20.6951 17.0658C19.5739 18.2575 13.1247 21.8178 11.4956 22.1428C9.86847 21.8197 3.42309 18.2612 2.29999 17.0677C1.78731 15.5465 1.78731 8.45169 2.29999 6.93231C3.42117 5.73877 9.86751 2.18031 11.4956 1.85723ZM8.62463 5.53846L6.70807 7.38462H7.66635V16.6154H9.5829V12.9231H13.416V16.6154H12.4577L14.3743 18.4615L16.2909 16.6154H15.3326V8.30769H13.416V11.0769H9.5829V7.38462H10.5412L8.62463 5.53846Z" fill="#3D4351"/>
</svg>
